<mxfile host="app.diagrams.net" agent="Mozilla/5.0 (X11; Linux x86_64) AppleWebKit/537.36 (KHTML, like Gecko) Chrome/136.0.0.0 Safari/537.36" version="27.0.9">
  <diagram name="Page-1" id="e7e014a7-5840-1c2e-5031-d8a46d1fe8dd">
    <mxGraphModel dx="504" dy="552" grid="1" gridSize="10" guides="1" tooltips="1" connect="1" arrows="1" fold="1" page="1" pageScale="1" pageWidth="1169" pageHeight="826" background="none" math="0" shadow="0">
      <root>
        <mxCell id="0" />
        <mxCell id="1" parent="0" />
        <mxCell id="2" value="Flutter UI (View)" style="swimlane;whiteSpace=wrap" parent="1" vertex="1">
          <mxGeometry x="164.5" y="128" width="280" height="1322" as="geometry" />
        </mxCell>
        <mxCell id="5" value="" style="ellipse;shape=startState;fillColor=#000000;strokeColor=#ff0000;" parent="2" vertex="1">
          <mxGeometry x="100" y="40" width="30" height="30" as="geometry" />
        </mxCell>
        <mxCell id="6" value="" style="edgeStyle=elbowEdgeStyle;elbow=horizontal;verticalAlign=bottom;endArrow=open;endSize=8;strokeColor=#FF0000;endFill=1;rounded=0" parent="2" source="5" target="7" edge="1">
          <mxGeometry x="100" y="40" as="geometry">
            <mxPoint x="115" y="110" as="targetPoint" />
          </mxGeometry>
        </mxCell>
        <mxCell id="7" value="open, displayÂ &#xa;splash screen" style="rounded=1;" parent="2" vertex="1">
          <mxGeometry x="60" y="92" width="110" height="50" as="geometry" />
        </mxCell>
        <mxCell id="11" value="" style="endArrow=open;strokeColor=#FF0000;endFill=1;rounded=0" parent="2" edge="1">
          <mxGeometry relative="1" as="geometry">
            <mxPoint x="115" y="270" as="sourcePoint" />
            <mxPoint x="114.99999999999989" y="325" as="targetPoint" />
          </mxGeometry>
        </mxCell>
        <mxCell id="_Wzj_o-x4S0ocVzf4qr--63" value="close splash&#xa;screen" style="rounded=1;" vertex="1" parent="2">
          <mxGeometry x="60" y="222" width="110" height="50" as="geometry" />
        </mxCell>
        <mxCell id="_Wzj_o-x4S0ocVzf4qr--64" value="display register&#xa;screen" style="rounded=1;" vertex="1" parent="2">
          <mxGeometry x="25.5" y="482" width="110" height="50" as="geometry" />
        </mxCell>
        <mxCell id="_Wzj_o-x4S0ocVzf4qr--65" value="display login&#xa;screen" style="rounded=1;" vertex="1" parent="2">
          <mxGeometry x="155.5" y="482" width="110" height="50" as="geometry" />
        </mxCell>
        <mxCell id="3" value="State Management (ViewModel)" style="swimlane;whiteSpace=wrap" parent="1" vertex="1">
          <mxGeometry x="444.5" y="128" width="280" height="1322" as="geometry" />
        </mxCell>
        <mxCell id="34" value="" style="whiteSpace=wrap;strokeColor=#FF0000;fillColor=#FF0000" parent="3" vertex="1">
          <mxGeometry x="245" y="395" width="5" height="45" as="geometry" />
        </mxCell>
        <mxCell id="41" value="" style="edgeStyle=elbowEdgeStyle;elbow=horizontal;entryX=0;entryY=0.5;strokeColor=#FF0000;endArrow=open;endFill=1;rounded=0" parent="3" target="34" edge="1">
          <mxGeometry width="100" height="100" relative="1" as="geometry">
            <mxPoint x="195" y="374.9999999999998" as="sourcePoint" />
            <mxPoint x="160" y="380" as="targetPoint" />
            <Array as="points">
              <mxPoint x="195" y="400" />
            </Array>
          </mxGeometry>
        </mxCell>
        <mxCell id="_Wzj_o-x4S0ocVzf4qr--48" value="request&#xa;sunrise/sunset&#xa;times" style="rounded=1;" vertex="1" parent="3">
          <mxGeometry x="150" y="162" width="110" height="50" as="geometry" />
        </mxCell>
        <mxCell id="_Wzj_o-x4S0ocVzf4qr--52" style="edgeStyle=orthogonalEdgeStyle;rounded=0;orthogonalLoop=1;jettySize=auto;html=1;exitX=1;exitY=0.25;exitDx=0;exitDy=0;entryX=0.5;entryY=0;entryDx=0;entryDy=0;" edge="1" parent="3" source="_Wzj_o-x4S0ocVzf4qr--49" target="_Wzj_o-x4S0ocVzf4qr--48">
          <mxGeometry relative="1" as="geometry" />
        </mxCell>
        <mxCell id="_Wzj_o-x4S0ocVzf4qr--58" style="edgeStyle=orthogonalEdgeStyle;rounded=0;orthogonalLoop=1;jettySize=auto;html=1;exitX=1;exitY=0.75;exitDx=0;exitDy=0;entryX=0.5;entryY=0;entryDx=0;entryDy=0;" edge="1" parent="3" source="_Wzj_o-x4S0ocVzf4qr--49" target="_Wzj_o-x4S0ocVzf4qr--57">
          <mxGeometry relative="1" as="geometry" />
        </mxCell>
        <mxCell id="_Wzj_o-x4S0ocVzf4qr--49" value="" style="whiteSpace=wrap;strokeColor=#FF0000;fillColor=#000000;rotation=90;" vertex="1" parent="3">
          <mxGeometry x="145" y="32" width="5" height="216.5" as="geometry" />
        </mxCell>
        <mxCell id="_Wzj_o-x4S0ocVzf4qr--62" style="edgeStyle=orthogonalEdgeStyle;rounded=0;orthogonalLoop=1;jettySize=auto;html=1;exitX=0.5;exitY=1;exitDx=0;exitDy=0;entryX=0.5;entryY=0;entryDx=0;entryDy=0;" edge="1" parent="3" source="_Wzj_o-x4S0ocVzf4qr--57" target="_Wzj_o-x4S0ocVzf4qr--59">
          <mxGeometry relative="1" as="geometry" />
        </mxCell>
        <mxCell id="_Wzj_o-x4S0ocVzf4qr--57" value="load viewmodel" style="rounded=1;" vertex="1" parent="3">
          <mxGeometry x="25.5" y="162" width="110" height="50" as="geometry" />
        </mxCell>
        <mxCell id="_Wzj_o-x4S0ocVzf4qr--70" style="edgeStyle=orthogonalEdgeStyle;rounded=0;orthogonalLoop=1;jettySize=auto;html=1;exitX=0.5;exitY=1;exitDx=0;exitDy=0;entryX=0.5;entryY=0;entryDx=0;entryDy=0;" edge="1" parent="3" source="_Wzj_o-x4S0ocVzf4qr--59" target="_Wzj_o-x4S0ocVzf4qr--66">
          <mxGeometry relative="1" as="geometry" />
        </mxCell>
        <mxCell id="_Wzj_o-x4S0ocVzf4qr--59" value="viewmodel loaded" style="rounded=1;" vertex="1" parent="3">
          <mxGeometry x="25.5" y="248.5" width="110" height="50" as="geometry" />
        </mxCell>
        <mxCell id="_Wzj_o-x4S0ocVzf4qr--61" value="gathered&#xa;sunrise/sunset&#xa;times" style="rounded=1;" vertex="1" parent="3">
          <mxGeometry x="150" y="312" width="110" height="50" as="geometry" />
        </mxCell>
        <mxCell id="_Wzj_o-x4S0ocVzf4qr--66" value="user data exists&lt;br&gt;&amp;nbsp;in local storage?" style="rhombus;whiteSpace=wrap;html=1;fontColor=#000000;fillColor=#ffffc0;strokeColor=#000000;rounded=1;" vertex="1" parent="3">
          <mxGeometry x="20.5" y="377.5" width="120" height="80" as="geometry" />
        </mxCell>
        <mxCell id="4" value="Firebase Backend (Model)" style="swimlane;whiteSpace=wrap" parent="1" vertex="1">
          <mxGeometry x="724.5" y="128" width="280" height="1322" as="geometry" />
        </mxCell>
        <mxCell id="33" value="process&#xa;command" style="" parent="4" vertex="1">
          <mxGeometry x="90" y="405" width="110" height="50" as="geometry" />
        </mxCell>
        <mxCell id="37" value="" style="edgeStyle=none;strokeColor=#FF0000;endArrow=open;endFill=1;rounded=0" parent="4" target="33" edge="1">
          <mxGeometry width="100" height="100" relative="1" as="geometry">
            <mxPoint x="-30" y="429.5" as="sourcePoint" />
            <mxPoint x="90" y="429.5" as="targetPoint" />
          </mxGeometry>
        </mxCell>
        <mxCell id="38" value="" style="ellipse;shape=endState;fillColor=#000000;strokeColor=#ff0000" parent="4" vertex="1">
          <mxGeometry x="130" y="500" width="30" height="30" as="geometry" />
        </mxCell>
        <mxCell id="39" value="" style="endArrow=open;strokeColor=#FF0000;endFill=1;rounded=0" parent="4" source="33" target="38" edge="1">
          <mxGeometry relative="1" as="geometry" />
        </mxCell>
        <mxCell id="_Wzj_o-x4S0ocVzf4qr--41" value="api.sunrise-sunset.org backend (Model)" style="swimlane;whiteSpace=wrap" vertex="1" parent="1">
          <mxGeometry x="1004.5" y="128" width="280" height="1322" as="geometry" />
        </mxCell>
        <mxCell id="_Wzj_o-x4S0ocVzf4qr--42" value="process&#xa;command" style="" vertex="1" parent="_Wzj_o-x4S0ocVzf4qr--41">
          <mxGeometry x="90" y="405" width="110" height="50" as="geometry" />
        </mxCell>
        <mxCell id="_Wzj_o-x4S0ocVzf4qr--44" value="" style="edgeStyle=none;strokeColor=#FF0000;endArrow=open;endFill=1;rounded=0" edge="1" parent="_Wzj_o-x4S0ocVzf4qr--41" target="_Wzj_o-x4S0ocVzf4qr--42">
          <mxGeometry width="100" height="100" relative="1" as="geometry">
            <mxPoint x="-30" y="429.5" as="sourcePoint" />
            <mxPoint x="90" y="429.5" as="targetPoint" />
          </mxGeometry>
        </mxCell>
        <mxCell id="_Wzj_o-x4S0ocVzf4qr--45" value="" style="ellipse;shape=endState;fillColor=#000000;strokeColor=#ff0000" vertex="1" parent="_Wzj_o-x4S0ocVzf4qr--41">
          <mxGeometry x="130" y="500" width="30" height="30" as="geometry" />
        </mxCell>
        <mxCell id="_Wzj_o-x4S0ocVzf4qr--46" value="" style="endArrow=open;strokeColor=#FF0000;endFill=1;rounded=0" edge="1" parent="_Wzj_o-x4S0ocVzf4qr--41" source="_Wzj_o-x4S0ocVzf4qr--42" target="_Wzj_o-x4S0ocVzf4qr--45">
          <mxGeometry relative="1" as="geometry" />
        </mxCell>
        <mxCell id="_Wzj_o-x4S0ocVzf4qr--56" style="edgeStyle=orthogonalEdgeStyle;rounded=0;orthogonalLoop=1;jettySize=auto;html=1;exitX=0.5;exitY=1;exitDx=0;exitDy=0;entryX=0.5;entryY=0;entryDx=0;entryDy=0;" edge="1" parent="_Wzj_o-x4S0ocVzf4qr--41" source="_Wzj_o-x4S0ocVzf4qr--53" target="_Wzj_o-x4S0ocVzf4qr--55">
          <mxGeometry relative="1" as="geometry" />
        </mxCell>
        <mxCell id="_Wzj_o-x4S0ocVzf4qr--53" value="process request&#xa;w/ lat long params" style="rounded=1;" vertex="1" parent="_Wzj_o-x4S0ocVzf4qr--41">
          <mxGeometry x="95.5" y="162" width="110" height="50" as="geometry" />
        </mxCell>
        <mxCell id="_Wzj_o-x4S0ocVzf4qr--55" value="return json&#xa;of sunrise/sunset&#xa;times" style="rounded=1;" vertex="1" parent="_Wzj_o-x4S0ocVzf4qr--41">
          <mxGeometry x="95.5" y="252" width="110" height="50" as="geometry" />
        </mxCell>
        <mxCell id="_Wzj_o-x4S0ocVzf4qr--50" style="edgeStyle=orthogonalEdgeStyle;rounded=0;orthogonalLoop=1;jettySize=auto;html=1;exitX=1;exitY=0.5;exitDx=0;exitDy=0;entryX=0;entryY=0.5;entryDx=0;entryDy=0;" edge="1" parent="1" source="7" target="_Wzj_o-x4S0ocVzf4qr--49">
          <mxGeometry relative="1" as="geometry" />
        </mxCell>
        <mxCell id="_Wzj_o-x4S0ocVzf4qr--54" style="edgeStyle=orthogonalEdgeStyle;rounded=0;orthogonalLoop=1;jettySize=auto;html=1;exitX=1;exitY=0.5;exitDx=0;exitDy=0;" edge="1" parent="1" source="_Wzj_o-x4S0ocVzf4qr--48" target="_Wzj_o-x4S0ocVzf4qr--53">
          <mxGeometry relative="1" as="geometry" />
        </mxCell>
        <mxCell id="_Wzj_o-x4S0ocVzf4qr--67" value="no" style="edgeStyle=orthogonalEdgeStyle;html=1;align=left;verticalAlign=bottom;endArrow=open;endSize=8;strokeColor=#000000;rounded=0;entryX=0.5;entryY=0;entryDx=0;entryDy=0;" edge="1" source="_Wzj_o-x4S0ocVzf4qr--66" parent="1" target="_Wzj_o-x4S0ocVzf4qr--64">
          <mxGeometry x="-1" relative="1" as="geometry">
            <mxPoint x="370" y="510" as="targetPoint" />
            <Array as="points">
              <mxPoint x="245" y="520" />
            </Array>
          </mxGeometry>
        </mxCell>
        <mxCell id="_Wzj_o-x4S0ocVzf4qr--68" value="yes" style="edgeStyle=orthogonalEdgeStyle;html=1;align=left;verticalAlign=top;endArrow=open;endSize=8;strokeColor=#000000;rounded=0;" edge="1" source="_Wzj_o-x4S0ocVzf4qr--66" parent="1">
          <mxGeometry x="-1" relative="1" as="geometry">
            <mxPoint x="430" y="585" as="targetPoint" />
            <Array as="points">
              <mxPoint x="460" y="585" />
              <mxPoint x="460" y="560" />
            </Array>
          </mxGeometry>
        </mxCell>
      </root>
    </mxGraphModel>
  </diagram>
</mxfile>
